<?xml version="1.0" encoding="utf-8"?>
<!-- Generator: Adobe Illustrator 22.0.0, SVG Export Plug-In . SVG Version: 6.00 Build 0)  -->
<svg version="1.1" xmlns="http://www.w3.org/2000/svg" xmlns:xlink="http://www.w3.org/1999/xlink" x="0px" y="0px"
	 viewBox="0 0 357 87" style="enable-background:new 0 0 357 87;" xml:space="preserve">
<style type="text/css">
	.st0{display:none;}
	.st1{display:inline;fill:#11839B;}
	.st2{fill:#1E2D4A;}
	.st3{fill:#FF5619;}
</style>
<g id="图层_2" class="st0">
	<rect x="774.5" y="-16.5" class="st1" width="350" height="120"/>
	<rect x="258.5" y="-16.5" class="st1" width="120" height="120"/>
</g>
<g id="图层_1">
	<g>
		<path class="st2" d="M121.3,63.8c-1.6,0-4.4,0-8.4-0.1c-3,0-5.6-0.3-7.6-0.8c-1.9-0.6-3.5-1.6-4.9-3.2c-0.7-0.8-1.2-1.2-1.8-1.2
			c-0.9,0-2.4,2.1-4.6,6.2l-3.6-3.3c2.2-3.7,4.2-6,6-7.1V41.6h-5.9v-4.5h10.4v17.7c0.2,0.1,0.4,0.3,0.6,0.6c1.1,1.2,2.2,2.1,3.3,2.7
			c1.3,0.7,3.4,1.1,6.2,1.2c3.6,0.1,6.8,0.1,9.6,0.1l7.1,0c2.4-0.1,4.2-0.2,5.4-0.3l-1.2,4.8H121.3z M94.6,21.9
			c2.9,2.4,5.4,4.8,7.6,7.4l-3.4,3.4c-1.7-2.3-4.2-4.8-7.6-7.5L94.6,21.9z M109.6,35.7c-0.7,6.4-2.1,11-4.2,13.9l-3.7-2.7
			c2-2.9,3.2-6.8,3.8-11.9L109.6,35.7z M103.8,26.2H115c-0.5-1.6-0.9-2.9-1.4-4l4.9-0.8c0.5,1.3,0.9,2.9,1.4,4.8h13v4.7h-8.7v21.5
			c0,3.2-1.5,4.8-4.5,4.8h-4.4l-1-4.6c1.5,0.2,2.8,0.3,3.8,0.3c1.2,0,1.8-0.6,1.8-1.7V30.9h-3.6v5.5c-0.1,9.5-2.7,16.4-7.7,20.8
			L105,54c4.3-3.6,6.6-9.5,6.7-17.6v-5.5h-7.8V26.2z M129.7,34.5c1.3,4.3,2.4,9.2,3.4,14.6l-4.1,1c-0.9-5.2-1.9-9.9-3.1-14.3
			L129.7,34.5z"/>
		<path class="st2" d="M142.7,22.8h27.8v15h7.9v4.4h-7.2l3.7,3c-2.5,3-5.2,5.4-8.2,7c3.4,2.5,7.4,4.7,12,6.7l-2.5,4.3
			c-6.6-3.1-11.8-6.8-15.8-11.1v7.5c0,3.3-1.4,4.9-4.3,4.9h-5.4l-1.1-4.6c2,0.2,3.6,0.3,4.9,0.3c0.7,0,1.1-0.6,1.1-1.9v-6.1
			c-4.5,3.9-9.9,7.5-16.2,10.8l-2-4.5c7-3.2,13-6.9,18.1-11.3v-5.1H138v-4.4h27.5v-3.2h-21.2v-4.2h21.2v-3.3h-22.8V22.8z M143.9,43
			c2.7,1.9,5,3.7,6.8,5.6l-3.2,3.2c-1.6-1.7-3.9-3.6-6.9-5.7L143.9,43z M160.3,42.3v4.6c0.8,0.9,1.8,1.8,2.9,2.8
			c3-1.8,5.6-4.3,7.8-7.4H160.3z"/>
		<path class="st2" d="M186.5,32.8c2.9,2.5,5.2,4.8,6.9,6.9l-3.4,3.4c-1.6-2.2-3.9-4.5-6.9-7.1L186.5,32.8z M194.8,47.8
			c-2,5.9-4.3,11.3-6.8,16.4l-4.4-1.9c2.6-5.2,4.9-10.6,6.8-16.2L194.8,47.8z M187.2,22c2.7,2.3,5.1,4.6,7.1,7l-3.4,3.4
			c-1.7-2.3-4.1-4.7-7.1-7.3L187.2,22z M195,28.7h5.7c-0.7-2.4-1.4-4.6-2.1-6.4l4.9-0.8c0.6,2.1,1.2,4.6,1.8,7.3h5.7v4.8h-1.9
			c-0.8,5.7-1.8,10.5-2.9,14.3c2,3.5,3.8,6.9,5.4,10.2l-3.8,2.7c-0.7-1.6-2-4-3.7-7.4c-2.1,4.2-5.1,8-8.8,11.5l-3-3.9
			c3.8-3.5,6.8-7.4,8.7-11.6l0.4-1c-1.6-2.8-3.5-6-5.8-9.6l3.7-2.3c1.2,1.8,2.5,3.8,3.9,6.1c0.7-2.7,1.2-5.7,1.7-9H195V28.7z
			 M213.8,64.2l-1.1-4.7c2,0.2,3.9,0.3,5.7,0.3c1.1,0,1.7-0.6,1.7-1.7V21.6h4.7v37.6c0,3.3-1.6,4.9-4.7,4.9H213.8z M212.8,25.5h4.5
			v28.8h-4.5V25.5z"/>
		<path class="st2" d="M248.2,45h4.8v3.3c0,0.4-0.1,1.1-0.2,2h3.9v7.3c0,1.2,0.6,1.9,1.9,1.9h6.8c0.6,0,1.1-0.2,1.5-0.7
			c0.3-0.5,0.6-2.1,0.8-4.8l4.5,1.4c-0.4,4.2-1,6.7-1.9,7.5c-0.9,0.7-2.2,1.1-4,1.1h-9.1c-3.4,0-5.2-1.8-5.2-5.3v-5.2
			c-0.8,2.3-2.1,4.2-3.9,5.8c-3,2.5-7.8,4.4-14.3,5.8l-2.8-4.3c6.6-1.3,11.1-2.8,13.5-4.6c2.3-2,3.5-4.5,3.8-7.7V45z M232.9,23.5
			h4.7v11.8h-4.7V23.5z M264.4,38.2v17.1h-4.8V42.6h-17v12.7h-4.8V38.2H264.4z M242,21.5h4.8v15.3H242V21.5z M256.8,28.9
			c-1.4,2.6-3.1,4.8-4.9,6.5l-3.7-3.4c3.1-3.2,5.3-6.8,6.6-10.9l4.7,1.3l-0.7,2.1h12.6v4.4H256.8z M261,29.4
			c2.5,1.4,4.9,3.2,7.2,5.3l-3,3.4c-2.3-2.3-4.7-4.3-7.2-5.9L261,29.4z"/>
		<path class="st2" d="M299.9,22.9h15.7v12.4h-5.4c0.9,1.3,1.6,2.5,2,3.4h6.3v4.3h-11c2.8,2.1,6.8,3.8,11.9,5.1l-2,4.1l-2.3-0.8
			v13.2H311v-1.8h-7.1v1.8h-4.3V49.2h10.6c-3.4-1.8-6-3.8-8.1-6.1h-7.5c-2.3,2.4-5.1,4.4-8.4,6.1h9.8v15.5h-4.3v-1.8h-6.3v1.8h-4.2
			V51.3l-2.7,0.9l-2.2-4c4.9-1.4,8.8-3.1,11.8-5.2h-11v-4.3h15.5c0.7-1,1.3-2,1.8-3.1l4.6,0.5c-0.4,1-0.8,1.8-1.3,2.6h9.7
			c-0.7-1.1-1.2-1.9-1.6-2.4l3.1-1h-9.1V22.9z M280.7,22.9h15.2v12.4h-15.2V22.9z M291.6,31.3V27h-6.5v4.3H291.6z M285.5,58.8h6.3
			v-5.6h-6.3V58.8z M303.9,58.8h7.1v-5.6h-7.1V58.8z M311.3,31.3V27h-6.9v4.3H311.3z"/>
	</g>
	<g>
		<path class="st3" d="M78,25.3l-6.8-5c-0.5-0.4-1.6-0.6-2.8-0.6H52.8c-0.3,0-3.4,0-5.2,1.6L34.4,34.4c-0.3,0.3-1,1.2-1,2.6v14.1
			c0,1,0.8,1.8,1.8,1.8h10.2c0.9,0,1.6-0.9,1.6-1.8l0-12.6c0-0.9,0.3-1.8,0.9-2.5c0.7-0.8,1.4-1.4,1.7-1.7c0.2-0.1,0.9-0.6,1.6-0.6
			l17,0c1.9,0,2.4-0.5,2.9-0.9l6.8-5C79.4,26.7,78.8,25.9,78,25.3z"/>
		<path class="st2" d="M79.8,48.9v-8.4c0-2.8-0.7-3.2-1.8-3.4H64.9c-2.2,0-3.8,1.6-3.8,3.8l0,5.3c0,1.3,1.1,3,2.8,3h2.3l-1.5,2
			c-0.9,1-1.8,1.8-2.8,1.8l-14.3,0c-0.9,0-1.7,1-1.7,1.7l0,10.1c0,0.8,0.6,1.6,1.6,1.7l14.3,0c2.2,0,2.6-0.4,3.6-1.3l5.9-5.5
			C71.8,59.1,79.3,52.2,79.8,48.9z"/>
	</g>
</g>
</svg>
